<?xml version="1.0" ?><!DOCTYPE svg  PUBLIC '-//W3C//DTD SVG 1.1//EN'  'http://www.w3.org/Graphics/SVG/1.1/DTD/svg11.dtd'><svg enable-background="new 0 0 800 800" height="800px" id="GUIDE" version="1.1" viewBox="0 0 800 800" width="800px" xml:space="preserve" xmlns="http://www.w3.org/2000/svg" xmlns:cc="http://creativecommons.org/ns#" xmlns:dc="http://purl.org/dc/elements/1.1/" xmlns:inkscape="http://www.inkscape.org/namespaces/inkscape" xmlns:rdf="http://www.w3.org/1999/02/22-rdf-syntax-ns#" xmlns:sodipodi="http://sodipodi.sourceforge.net/DTD/sodipodi-0.dtd" xmlns:svg="http://www.w3.org/2000/svg" xmlns:xlink="http://www.w3.org/1999/xlink"><path d="M247.502,138.963H43.428c-8.284,0-15,6.716-15,15v492.074c0,8.284,6.716,15,15,15h204.074  c8.284,0,15-6.716,15-15V153.963C262.502,145.679,255.786,138.963,247.502,138.963z M232.502,631.037H58.428V168.963h174.074  V631.037z" fill="#ffffff"/><path d="M756.572,191.558H309.569c-8.284,0-15,6.716-15,15v343.313c0,8.284,6.716,15,15,15h180.636v66.166h-27.206  c-8.284,0-15,6.716-15,15s6.716,15,15,15h42.206h55.729h42.206c8.284,0,15-6.716,15-15s-6.716-15-15-15h-27.206v-66.166h180.638  c8.284,0,15-6.716,15-15V206.558C771.572,198.273,764.856,191.558,756.572,191.558z M545.936,631.037h-25.729v-66.166h25.729  V631.037z M741.572,534.871H560.936h-55.729H324.569V221.558h417.003V534.871z" fill="#ffffff"/><path d="M696.818,251.312H369.322c-8.284,0-15,6.716-15,15V490.12c0,8.283,6.716,15,15,15h327.496  c8.283,0,15-6.717,15-15V266.312C711.818,258.027,705.103,251.312,696.818,251.312z M681.818,475.119H384.322V281.312h297.496  V475.119z" fill="#ffffff"/><path d="M96.717,572.521h97.496c8.284,0,15-6.717,15-15c0-8.284-6.716-15-15-15H96.717c-8.284,0-15,6.716-15,15  C81.717,565.805,88.433,572.521,96.717,572.521z" fill="#ffffff"/><path d="M96.717,512.543h97.496c8.284,0,15-6.715,15-15c0-8.284-6.716-15-15-15H96.717c-8.284,0-15,6.716-15,15  C81.717,505.828,88.433,512.543,96.717,512.543z" fill="#ffffff"/><path d="M96.717,452.564h97.496c8.284,0,15-6.717,15-15c0-8.284-6.716-15-15-15H96.717c-8.284,0-15,6.716-15,15  C81.717,445.848,88.433,452.564,96.717,452.564z" fill="#ffffff"/><circle cx="145.466" cy="267.387" fill="#ffffff" r="25.867"/></svg>